<svg width="96" height="96" viewBox="0 0 96 96" fill="none" xmlns="http://www.w3.org/2000/svg">
<circle cx="48" cy="48" r="48" transform="rotate(90 48 48)" fill="url(#paint0_linear)"/>
<ellipse rx="44" ry="44" transform="matrix(1 0 0 -1 48 48)" fill="url(#paint1_linear)"/>
<circle r="40" transform="matrix(-4.37114e-08 -1 -1 4.37114e-08 48.1177 48.1177)" fill="white"/>
<mask id="mask0" mask-type="alpha" maskUnits="userSpaceOnUse" x="12" y="12" width="73" height="73">
<path fill-rule="evenodd" clip-rule="evenodd" d="M12.1177 12.1177H84.1177V84.1177H12.1177V12.1177Z" fill="white"/>
</mask>
<g mask="url(#mask0)">
<path fill-rule="evenodd" clip-rule="evenodd" d="M48.1177 84.1174C28.3177 84.1174 12.1177 67.9175 12.1177 47.9375C12.2977 28.1375 28.3177 11.9375 48.2977 12.1175C68.0977 12.2975 84.1177 28.3175 84.1177 48.4775C83.9377 68.0975 67.9177 84.1174 48.1177 84.1174Z" fill="#0090FF"/>
<path fill-rule="evenodd" clip-rule="evenodd" d="M51.5376 43.7974L50.4576 49.5574L60.7176 50.9974L59.9976 53.6974L49.9176 52.2574C49.1976 54.5974 48.8376 57.1174 47.9376 59.2774C47.0376 61.7974 46.1376 64.3174 45.0576 66.6574C43.6176 69.7174 41.0976 71.8774 37.6776 72.4174C35.6976 72.7774 33.5376 72.5974 31.9176 71.3374C31.3776 70.9774 30.8376 70.2574 30.8376 69.7174C30.8376 68.9974 31.1976 68.0974 31.7376 67.7374C32.0976 67.5574 32.9976 67.7374 33.5376 67.9174C34.0776 68.4574 34.6176 69.1774 34.9776 69.8974C36.0576 71.3374 37.4976 71.5174 38.9376 70.4374C40.5576 68.9974 41.4576 67.0174 41.9976 65.0374C43.0776 60.7174 44.1576 56.5774 45.0576 52.2574V51.5374L35.5176 50.0974L35.8776 47.3974L45.7776 48.8374L47.0376 43.2574L36.7776 41.6374L37.1376 38.7574L47.7576 40.1974C48.1176 39.1174 48.2976 38.2174 48.6576 37.3174C49.5576 34.0774 50.4576 30.8374 52.6176 27.9574C54.7776 25.0774 57.2976 23.2774 61.0776 23.4574C62.6976 23.4574 64.3176 23.9974 65.3976 25.2574C65.5776 25.4374 65.9376 25.7974 65.9376 26.1574C65.9376 26.8774 65.9376 27.7774 65.3976 28.3174C64.6776 28.8574 63.7776 28.6774 63.0576 27.9574C62.5176 27.4174 62.1576 26.8774 61.6176 26.3374C60.5376 24.8974 58.9176 24.7174 57.6576 25.9774C56.7576 26.8774 55.8576 28.1374 55.3176 29.3974C54.0576 33.1774 53.1576 37.1374 51.8976 41.0974L61.7976 42.5374L61.0776 45.2374L51.5376 43.7974" fill="white"/>
</g>
<defs>
<linearGradient id="paint0_linear" x1="48" y1="-3.8147e-06" x2="48" y2="96" gradientUnits="userSpaceOnUse">
<stop stop-color="#F0B90B"/>
<stop offset="1" stop-color="#F8D33A"/>
</linearGradient>
<linearGradient id="paint1_linear" x1="44" y1="0" x2="44" y2="88" gradientUnits="userSpaceOnUse">
<stop stop-color="#F0B90B"/>
<stop offset="1" stop-color="#F8D33A"/>
</linearGradient>
</defs>
</svg>
