<svg width="96" height="96" viewBox="0 0 96 96" fill="none" xmlns="http://www.w3.org/2000/svg">
<circle cx="48" cy="48" r="48" transform="rotate(90 48 48)" fill="url(#paint0_linear)"/>
<ellipse rx="44" ry="44" transform="matrix(1 0 0 -1 48 48)" fill="url(#paint1_linear)"/>
<circle r="40" transform="matrix(-4.37114e-08 -1 -1 4.37114e-08 48.1177 48.1177)" fill="white"/>
<circle cx="48.1177" cy="48.1177" r="36" fill="white"/>
<path d="M52.4076 42.5933C53.0463 41.7225 53.3367 40.6195 53.0463 39.5165C52.6399 38.1232 51.4204 37.2523 50.0267 36.9621C47.762 36.4396 45.0907 37.5426 42.8841 38.0651C43.4648 40.3292 44.0455 42.5933 44.6262 44.9155C44.6843 45.0316 44.7423 45.7863 44.8585 45.8443C45.0907 46.0185 46.4844 45.438 46.7748 45.3799C48.8653 44.8574 51.072 44.451 52.4076 42.5933Z" fill="#00BE81"/>
<path d="M57.9889 50.7645C57.7566 49.6034 56.8856 48.7326 55.8403 48.2101C54.2144 47.4554 52.3561 47.5135 50.614 47.9779C49.6849 48.2101 48.7558 48.4423 47.8847 48.6746C47.5944 48.7326 46.0845 48.9068 45.9684 49.197C45.9103 49.3132 46.2007 50.0098 46.2007 50.1259C46.3749 50.7645 46.5491 51.4031 46.7233 52.0997C47.1298 53.5511 47.4782 55.0605 47.8847 56.5119C47.9428 56.686 48.0009 57.4407 48.1751 57.6149C48.3493 57.789 49.5688 57.3246 49.801 57.2666C51.7754 56.7441 54.0402 56.3957 55.7823 55.2347C57.1179 54.1897 58.3373 52.5642 57.9889 50.7645Z" fill="#00BE81"/>
<path d="M84.1177 48.1572C84.1177 40.7263 81.7949 33.4115 77.4977 27.3158C73.3166 21.3943 67.3354 16.808 60.5412 14.3117C53.4567 11.6993 45.5591 11.409 38.3004 13.4989C31.332 15.4728 25.0023 19.5946 20.3567 25.2259C15.653 30.9152 12.8076 37.9978 12.2269 45.3126C11.6462 52.8015 13.3883 60.3486 17.279 66.7345C20.9955 72.9463 26.6283 77.939 33.1902 80.8997C40.0425 84.0346 47.8819 84.9054 55.2568 83.396C62.3995 81.9447 69.0194 78.2873 74.0715 73.0044C79.1236 67.7214 82.5498 60.9291 83.6531 53.6724C84.0015 51.8727 84.1177 50.0149 84.1177 48.1572ZM64.7803 54.4851C63.9093 56.6331 62.1672 58.3747 60.1928 59.4778C59.554 59.8261 58.7991 60.1744 58.1023 60.4066C57.8119 60.5227 57.4635 60.5808 57.1732 60.6969C56.8828 60.7549 56.1279 60.813 55.8956 61.0452C55.6633 61.2774 56.0118 62.0902 56.1279 62.4385C56.3602 63.3674 56.5924 64.2962 56.8247 65.2251C56.9409 65.6315 57.057 66.0959 57.1732 66.5023C57.2312 66.6765 57.4054 67.1409 57.4054 67.3151C57.3474 67.6053 57.5216 67.3731 57.2312 67.5473C56.9409 67.7214 56.3602 67.7795 56.0698 67.8375C55.2568 68.0698 54.4439 68.2439 53.6309 68.4761C53.1663 66.6765 52.7018 64.9348 52.2372 63.1352C52.1791 62.903 52.1211 62.3224 52.0049 62.2063C51.8888 62.0321 51.8307 62.1483 51.5404 62.2063C50.6693 62.4385 49.7983 62.6707 48.8691 62.903C49.3337 64.7026 49.7982 66.5023 50.2628 68.302C50.3209 68.4761 50.5532 69.0567 50.4951 69.2308C50.437 69.347 50.2628 69.347 50.0305 69.405C49.0433 69.6372 47.94 70.1597 46.9528 70.2178C46.6625 70.2178 46.7786 70.3339 46.6625 70.1597C46.4883 69.9856 46.4302 69.347 46.3721 69.1147C46.0818 68.0117 45.7914 66.8506 45.5011 65.7476C45.443 65.4573 45.2688 64.064 45.0365 63.8899C44.8042 63.7738 43.4105 64.2962 43.1783 64.3543C41.1458 64.8768 39.1714 65.3993 37.139 65.9218C37.0809 64.5865 37.0228 63.3093 37.0228 61.9741C37.0228 61.6258 36.9067 61.2194 37.139 61.0452C37.3132 60.9291 37.7777 60.8711 38.01 60.813C38.4165 60.6969 38.823 60.5808 39.2876 60.4647C40.1005 60.2905 40.8555 59.9422 40.7974 58.9553C40.7974 58.7231 40.6812 58.5489 40.6812 58.3167C40.449 57.3298 40.1586 56.2848 39.9263 55.2979C39.1134 52.0468 38.2423 48.8539 37.4293 45.6028C37.139 44.4998 36.8486 43.3387 36.5583 42.2357C36.2679 41.1907 35.9195 40.1458 34.642 40.0296C33.9451 39.9716 33.1321 40.3199 32.4353 40.4941C32.1449 40.5521 30.9835 41.0166 30.7513 40.9005C30.6351 40.7844 30.577 40.2619 30.519 40.0877C30.4028 39.6233 30.2867 39.2169 30.1706 38.7525C29.9963 38.1139 29.8221 37.4753 29.706 36.8947C31.7965 36.3722 33.887 35.7917 36.0356 35.2692C36.3841 35.1531 37.5455 35.037 37.6035 34.7467C37.6616 34.5145 37.3713 33.7598 37.3132 33.5276C37.139 32.889 36.9648 32.1923 36.7905 31.5538C36.5002 30.5088 36.2679 29.4638 35.9776 28.4188C36.5002 28.3027 37.0228 28.1286 37.4874 28.0125C38.0681 27.8383 38.9972 27.4319 39.5779 27.49C39.8683 27.49 39.8102 27.6061 39.9263 28.0125C40.1005 28.7091 40.2748 29.4057 40.449 30.1024C40.6812 30.9152 40.8555 31.7279 41.0877 32.4826C41.1458 32.7148 41.2619 33.7018 41.4362 33.8179C41.6104 33.934 42.5976 33.5276 42.8298 33.4695C43.4105 33.3534 43.9332 33.1793 44.5139 33.0632C43.9912 30.9152 43.4105 28.7672 42.8879 26.6772C43.9912 26.3869 45.1526 26.0967 46.256 25.8064C46.6044 25.6903 46.6044 25.6322 46.7786 25.8645C47.0109 26.1547 47.069 26.9675 47.1851 27.3158C47.5335 28.7091 47.8819 30.0443 48.2304 31.4376C48.2884 31.6699 48.2884 32.0182 48.4626 32.0762C48.6368 32.1343 49.3337 31.844 49.4498 31.844C50.1467 31.6699 50.9016 31.6118 51.5984 31.6118C55.8375 31.6118 60.1347 34.4565 59.9024 39.1008C59.8444 40.9005 58.9153 42.584 57.6958 43.8612C61.18 44.3256 64.3158 46.5317 65.1288 50.073C65.4191 51.5244 65.361 53.0338 64.7803 54.4851Z" fill="#00BE81"/>
<defs>
<linearGradient id="paint0_linear" x1="48" y1="-3.8147e-06" x2="48" y2="96" gradientUnits="userSpaceOnUse">
<stop stop-color="#F0B90B"/>
<stop offset="1" stop-color="#F8D33A"/>
</linearGradient>
<linearGradient id="paint1_linear" x1="44" y1="0" x2="44" y2="88" gradientUnits="userSpaceOnUse">
<stop stop-color="#F0B90B"/>
<stop offset="1" stop-color="#F8D33A"/>
</linearGradient>
</defs>
</svg>
