<svg width="96" height="96" viewBox="0 0 96 96" fill="none" xmlns="http://www.w3.org/2000/svg">
<circle cx="48" cy="48" r="48" fill="url(#paint0_linear)"/>
<ellipse rx="44" ry="44" transform="matrix(1 0 0 -1 48 48)" fill="url(#paint1_linear)"/>
<circle r="40" transform="matrix(-4.37114e-08 -1 -1 4.37114e-08 48.1177 48.1177)" fill="white"/>
<path d="M83.0461 56.8165C78.2575 76.1296 58.6776 87.8345 39.4169 83.0461C20.1562 78.2578 8.39759 58.6787 13.1862 39.4188C17.9747 20.1057 37.5015 8.40085 56.8154 13.1892C76.1293 18.0308 87.8347 37.5567 83.0461 56.8165Z" fill="#F6921A"/>
<path d="M63.7158 42.7663C64.4075 37.9779 60.7895 35.4241 55.7881 33.6684L57.3843 27.1775L53.447 26.1666L51.8508 32.4979C50.7867 32.2319 49.7226 32.019 48.7116 31.753L50.3078 25.3685L46.3705 24.3577L44.7743 30.8486C43.923 30.6358 43.0718 30.4761 42.2737 30.2633L36.8466 28.88L35.7825 33.0831C35.7825 33.0831 38.7088 33.7748 38.6556 33.7748C40.2518 34.2004 40.571 35.2113 40.5178 36.0626L38.6556 43.4579C38.762 43.5111 38.9217 43.5111 39.0813 43.5643C38.9749 43.5111 38.8152 43.5111 38.6556 43.4579L36.0485 53.8327C35.8357 54.3115 35.3569 55.0564 34.2395 54.7904C34.2927 54.8436 31.3664 54.0987 31.3664 54.0987L29.3977 58.6211L34.5588 59.898C35.5165 60.164 36.4741 60.3768 37.3787 60.6428L35.7293 67.1869L39.6666 68.1978L41.2627 61.7069C42.3269 62.0261 43.391 62.2922 44.4019 62.505L42.8057 68.9427L46.743 69.9536L48.3924 63.4094C55.1496 64.6863 60.2042 64.1543 62.3324 58.089C64.035 53.1943 62.2261 50.3744 58.7144 48.5123C61.2684 47.9803 63.1837 46.2777 63.7158 42.7663ZM54.6707 55.4288C53.447 60.3236 45.2 57.6634 42.4865 57.025L44.668 48.3527C47.3815 48.9911 55.9477 50.3212 54.6707 55.4288ZM55.8945 42.7131C54.7772 47.1822 47.9136 44.8944 45.6789 44.3624L47.6475 36.4882C49.8822 37.0202 57.065 38.0311 55.8945 42.7131Z" fill="white"/>
<defs>
<linearGradient id="paint0_linear" x1="48" y1="0" x2="48" y2="96" gradientUnits="userSpaceOnUse">
<stop stop-color="#F0B90B"/>
<stop offset="1" stop-color="#F8D33A"/>
</linearGradient>
<linearGradient id="paint1_linear" x1="44" y1="0" x2="44" y2="88" gradientUnits="userSpaceOnUse">
<stop stop-color="#F0B90B"/>
<stop offset="1" stop-color="#F8D33A"/>
</linearGradient>
</defs>
</svg>
