<svg width="96" height="96" viewBox="0 0 96 96" fill="none" xmlns="http://www.w3.org/2000/svg">
<circle cx="48" cy="48" r="48" fill="url(#paint0_linear)"/>
<ellipse rx="44" ry="44" transform="matrix(1 0 0 -1 48 48)" fill="url(#paint1_linear)"/>
<circle r="40" transform="matrix(-4.37114e-08 -1 -1 4.37114e-08 48 48.1177)" fill="white"/>
<circle cx="48" cy="48.1177" r="36" fill="white"/>
<path d="M47.9999 26.8143C39.1905 26.8143 31.9905 33.9719 31.9905 42.8237C31.9905 44.6025 32.2869 46.339 32.8375 48.0331C33.2187 49.1766 34.4893 49.8119 35.6752 49.4307C36.8187 49.0496 37.454 47.779 37.0728 46.5931C36.6069 45.2802 36.3952 43.8825 36.4375 42.4849C36.6069 36.5131 41.4352 31.6002 47.4069 31.3037C54.0564 30.9649 59.5622 36.259 59.5622 42.8237C59.5622 48.9649 54.734 54.0049 48.6775 54.3437C48.6775 54.3437 46.4328 54.4707 45.3317 54.6402C44.7811 54.7249 44.3575 54.8096 44.0611 54.8519C43.934 54.8943 43.8069 54.7672 43.8493 54.6402L44.2305 52.7766L46.3058 43.2049C46.5599 42.019 45.7975 40.8331 44.6117 40.579C43.4258 40.3249 42.2399 41.0872 41.9858 42.2731C41.9858 42.2731 36.9881 65.5672 36.9458 65.8213C36.6917 67.0072 37.454 68.1931 38.6399 68.4472C39.8258 68.7013 41.0117 67.939 41.2658 66.7531C41.3081 66.499 41.9858 63.4072 41.9858 63.4072C42.494 61.0354 44.4422 59.299 46.7293 59.0025C47.2375 58.9178 49.2281 58.7907 49.2281 58.7907C57.4869 58.1554 64.0093 51.2519 64.0093 42.8237C64.0093 33.9719 56.8093 26.8143 47.9999 26.8143Z" fill="black"/>
<path d="M49.1434 63.6612C47.7034 63.3648 46.2634 64.2542 45.967 65.7365C45.6705 67.1765 46.5599 68.6165 48.0423 68.913C49.4823 69.2095 50.9223 68.3201 51.2187 66.8377C51.5152 65.3554 50.6258 63.9577 49.1434 63.6612Z" fill="#E6007A"/>
<defs>
<linearGradient id="paint0_linear" x1="48" y1="0" x2="48" y2="96" gradientUnits="userSpaceOnUse">
<stop stop-color="#F0B90B"/>
<stop offset="1" stop-color="#F8D33A"/>
</linearGradient>
<linearGradient id="paint1_linear" x1="44" y1="0" x2="44" y2="88" gradientUnits="userSpaceOnUse">
<stop stop-color="#F0B90B"/>
<stop offset="1" stop-color="#F8D33A"/>
</linearGradient>
</defs>
</svg>
