<svg width="96" height="96" viewBox="0 0 96 96" fill="none" xmlns="http://www.w3.org/2000/svg">
<circle cx="48" cy="48" r="48" transform="rotate(90 48 48)" fill="url(#paint0_linear)"/>
<ellipse rx="44" ry="44" transform="matrix(1 0 0 -1 48 48)" fill="url(#paint1_linear)"/>
<circle r="40" transform="matrix(-4.37114e-08 -1 -1 4.37114e-08 48.1177 48.1177)" fill="white"/>
<circle cx="48.1177" cy="48.1177" r="36" fill="#3067F0"/>
<path fill-rule="evenodd" clip-rule="evenodd" d="M26.4586 65.6496H69.4732V60.668L26.4586 60.668L26.4586 65.6496Z" fill="white"/>
<path fill-rule="evenodd" clip-rule="evenodd" d="M35.1656 40.829L24.5527 33.5516L26.502 55.2971L35.1656 40.829Z" fill="white"/>
<path fill-rule="evenodd" clip-rule="evenodd" d="M39.7138 57.9823L69.5164 57.9823L71.6823 34.1142L39.7138 57.9823Z" fill="white"/>
<path fill-rule="evenodd" clip-rule="evenodd" d="M58.1239 40.3955L34.7756 57.8093H28.3213L40.1903 37.9697L47.771 25.4075L58.1239 40.3955Z" fill="white"/>
<defs>
<linearGradient id="paint0_linear" x1="48" y1="-3.8147e-06" x2="48" y2="96" gradientUnits="userSpaceOnUse">
<stop stop-color="#F0B90B"/>
<stop offset="1" stop-color="#F8D33A"/>
</linearGradient>
<linearGradient id="paint1_linear" x1="44" y1="0" x2="44" y2="88" gradientUnits="userSpaceOnUse">
<stop stop-color="#F0B90B"/>
<stop offset="1" stop-color="#F8D33A"/>
</linearGradient>
</defs>
</svg>
